<?xml version="1.0" encoding="utf-8"?>
<!-- Generator: Adobe Illustrator 21.1.0, SVG Export Plug-In . SVG Version: 6.00 Build 0)  -->
<svg version="1.1" id="Layer_1" xmlns="http://www.w3.org/2000/svg" xmlns:xlink="http://www.w3.org/1999/xlink" x="0px" y="0px"
	 viewBox="0 0 24 24" style="enable-background:new 0 0 24 24;" xml:space="preserve">
<style type="text/css">
	.st0{opacity:0.38;}
</style>
<g>
	<path class="st0" d="M10.2,17.6c-0.1-0.1-0.1-0.1-0.2-0.2c-0.1,0-0.2-0.1-0.3-0.1c-0.1,0-0.2,0-0.3,0.1s-0.1,0.1-0.2,0.2
		c-0.1,0.1-0.1,0.2-0.1,0.3c0,0.1,0,0.2,0,0.3v0c0,0.1,0,0.2,0,0.3c0,0.1,0.1,0.2,0.1,0.3c0.1,0.1,0.1,0.1,0.2,0.2
		C9.6,19,9.7,19,9.8,19S10,19,10,19s0.1-0.1,0.2-0.2c0.1-0.1,0.1-0.2,0.1-0.3s0-0.2,0-0.3v0c0-0.1,0-0.2,0-0.3
		C10.3,17.8,10.3,17.7,10.2,17.6z"/>
	<path class="st0" d="M7.7,17.5c0,0-0.1,0-0.1-0.1s-0.1,0-0.2,0c-0.1,0-0.2,0-0.3,0.1c-0.1,0-0.1,0.1-0.2,0.2c0,0.1-0.1,0.2-0.1,0.3
		c0,0.1,0,0.2,0,0.3v0c0,0.1,0,0.2,0,0.3c0,0.1,0.1,0.2,0.1,0.3c0,0.1,0.1,0.1,0.2,0.2S7.3,19,7.4,19c0.1,0,0.1,0,0.2,0
		s0.1,0,0.1-0.1c0,0,0.1-0.1,0.1-0.1c0,0,0.1-0.1,0.1-0.1v-1c0,0-0.1-0.1-0.1-0.1C7.8,17.5,7.8,17.5,7.7,17.5z"/>
	<path class="st0" d="M14,1.5H6c-1.1,0-2,0.9-2,2l0,16c0,1.1,0.9,2,2,2h12c1.1,0,2-0.9,2-2v-12L14,1.5z M5.8,19.3
		c0,0-0.1,0.1-0.2,0.1s-0.1,0-0.2-0.1c0,0-0.1-0.1-0.1-0.2c0-0.1,0-0.1,0.1-0.2c0,0,0.1-0.1,0.2-0.1s0.1,0,0.2,0.1s0.1,0.1,0.1,0.2
		C5.9,19.2,5.9,19.2,5.8,19.3z M8.3,19.3H7.9l0-0.2c-0.1,0.1-0.2,0.2-0.3,0.2c-0.1,0-0.2,0.1-0.4,0.1c-0.1,0-0.2,0-0.4-0.1
		c-0.1-0.1-0.2-0.1-0.3-0.2c-0.1-0.1-0.1-0.2-0.2-0.4c0-0.1-0.1-0.3-0.1-0.4v0c0-0.2,0-0.3,0.1-0.5c0-0.1,0.1-0.3,0.2-0.4
		c0.1-0.1,0.2-0.2,0.3-0.2c0.1-0.1,0.2-0.1,0.4-0.1c0.1,0,0.3,0,0.4,0.1c0.1,0,0.2,0.1,0.3,0.2v-1.1h0.4V19.3z M10.8,18.2
		c0,0.2,0,0.3-0.1,0.4c0,0.1-0.1,0.3-0.2,0.4s-0.2,0.2-0.3,0.2c-0.1,0.1-0.3,0.1-0.4,0.1s-0.3,0-0.4-0.1C9.2,19.2,9.1,19.1,9,19
		c-0.1-0.1-0.2-0.2-0.2-0.4c0-0.1-0.1-0.3-0.1-0.4v0c0-0.2,0-0.3,0.1-0.4S9,17.5,9,17.4c0.1-0.1,0.2-0.2,0.3-0.2s0.3-0.1,0.4-0.1
		c0.2,0,0.3,0,0.4,0.1c0.1,0.1,0.2,0.1,0.3,0.2c0.1,0.1,0.2,0.2,0.2,0.4C10.7,17.9,10.8,18,10.8,18.2L10.8,18.2z M11.5,18.5
		c0,0.1,0.1,0.2,0.1,0.3s0.1,0.1,0.2,0.2S12,19,12.1,19c0.1,0,0.1,0,0.2,0c0.1,0,0.1-0.1,0.2-0.1s0.1-0.1,0.1-0.1
		c0-0.1,0-0.1,0.1-0.2H13c0,0.1,0,0.2-0.1,0.3c0,0.1-0.1,0.2-0.2,0.2s-0.2,0.1-0.3,0.2s-0.2,0.1-0.3,0.1c-0.2,0-0.3,0-0.4-0.1
		c-0.1-0.1-0.2-0.1-0.3-0.2c-0.1-0.1-0.1-0.2-0.2-0.3s-0.1-0.3-0.1-0.4v-0.1c0-0.1,0-0.3,0.1-0.4s0.1-0.2,0.2-0.3
		c0.1-0.1,0.2-0.2,0.3-0.2c0.1-0.1,0.3-0.1,0.4-0.1c0.1,0,0.2,0,0.4,0.1c0.1,0,0.2,0.1,0.3,0.2c0.1,0.1,0.1,0.2,0.2,0.3
		c0,0.1,0.1,0.2,0.1,0.3h-0.4c0-0.1,0-0.1,0-0.2c0-0.1-0.1-0.1-0.1-0.2c0,0-0.1-0.1-0.2-0.1c-0.1,0-0.1,0-0.2,0
		c-0.1,0-0.2,0-0.3,0.1c-0.1,0-0.1,0.1-0.2,0.2c0,0.1-0.1,0.2-0.1,0.3c0,0.1,0,0.2,0,0.3v0.1C11.5,18.4,11.5,18.5,11.5,18.5z
		 M13,8.5V3l5.5,5.5H13z"/>
</g>
</svg>
