<svg version="1.0" xmlns="http://www.w3.org/2000/svg"
 width="900.000000pt" height="900.000000pt" viewBox="0 0 900.000000 900.000000"
 preserveAspectRatio="xMidYMid meet">
  <g transform="translate(0.000000,900.000000) scale(0.100000,-0.100000)"
  fill="#000000" stroke="none">
    <path d="M4254 8991 c10 -16 -27 -23 -174 -32 -80 -4 -165 -13 -190 -18 -25
    -5 -70 -12 -100 -16 -30 -3 -75 -10 -100 -15 -180 -36 -334 -73 -510 -124 -60
    -17 -193 -63 -280 -96 -30 -12 -66 -25 -80 -30 -22 -7 -117 -47 -194 -82 -327
    -148 -662 -356 -961 -597 -139 -112 -192 -160 -350 -316 -129 -129 -206 -212
    -280 -305 -33 -41 -66 -81 -72 -88 -25 -26 -101 -129 -164 -222 -35 -52 -67
    -97 -70 -100 -33 -29 -349 -611 -349 -643 0 -3 -13 -34 -28 -69 -16 -35 -37
    -83 -46 -108 -10 -25 -23 -56 -28 -70 -18 -46 -97 -284 -107 -325 -6 -22 -17
    -67 -26 -100 -29 -108 -62 -258 -79 -360 -9 -55 -21 -127 -27 -160 -31 -184
    -50 -768 -30 -945 5 -52 15 -144 20 -205 13 -132 46 -343 69 -435 7 -25 23
    -90 36 -145 14 -55 32 -125 41 -155 9 -30 20 -68 25 -85 9 -33 66 -199 79
    -230 4 -11 16 -37 25 -58 9 -21 16 -42 16 -47 0 -5 16 -45 36 -87 19 -43 42
    -94 51 -113 48 -107 146 -296 191 -365 6 -11 17 -31 23 -45 6 -14 20 -38 33
    -55 12 -16 44 -66 71 -110 66 -107 262 -367 364 -485 121 -139 288 -306 431
    -433 126 -111 391 -317 409 -317 5 0 11 -4 13 -8 3 -9 155 -112 164 -112 3 0
    20 -11 37 -24 85 -63 552 -299 667 -336 14 -5 50 -18 80 -30 87 -33 222 -81
    255 -90 17 -5 64 -18 105 -30 149 -43 280 -75 375 -90 28 -5 91 -16 140 -24
    50 -9 142 -21 205 -27 63 -5 151 -15 195 -20 137 -18 847 2 924 26 9 2 63 12
    121 20 170 26 203 32 233 44 16 6 39 11 52 11 12 0 45 7 71 14 27 8 76 22 109
    31 82 23 343 106 380 121 17 7 62 25 100 40 131 50 450 203 550 264 33 20 67
    39 75 43 25 12 172 107 281 182 301 207 670 547 884 815 33 41 66 81 72 88 20
    20 96 122 129 172 17 25 55 81 86 125 30 44 85 132 122 195 36 63 71 122 76
    130 33 54 169 337 209 438 11 28 30 75 42 104 22 55 85 233 99 283 4 17 20 73
    35 125 14 52 33 117 41 144 8 26 14 56 14 65 0 9 6 45 14 81 30 133 37 167 46
    240 5 41 14 104 19 140 6 36 11 99 11 140 1 94 13 156 28 152 9 -1 12 58 12
    239 0 210 -2 243 -16 253 -13 10 -18 43 -25 159 -4 81 -13 173 -19 204 -17 96
    -32 185 -40 243 -4 30 -13 75 -19 100 -7 25 -23 88 -36 140 -46 184 -99 357
    -155 500 -12 30 -25 66 -30 80 -16 50 -86 207 -129 290 -129 250 -171 326
    -239 430 -99 154 -179 270 -192 280 -3 3 -17 21 -30 40 -144 209 -542 616
    -796 813 -160 124 -448 322 -507 347 -12 6 -44 24 -72 40 -58 36 -315 165
    -395 199 -30 13 -73 31 -95 41 -22 10 -60 26 -85 35 -25 9 -58 23 -75 29 -28
    12 -249 82 -374 120 -29 9 -60 16 -68 16 -8 0 -35 6 -61 14 -26 8 -81 21 -122
    30 -69 14 -126 24 -325 56 -38 6 -134 15 -212 20 -143 9 -168 13 -158 31 4 5
    -89 9 -235 9 -139 0 -239 -4 -236 -9z m3113 -2328 c85 -39 241 -181 279 -255
    30 -58 44 -109 35 -126 -16 -29 -4353 -4362 -4367 -4362 -11 0 -55 37 -154
    130 -9 8 -50 45 -91 81 -73 66 -85 77 -168 152 -23 21 -85 77 -139 125 -53 47
    -102 91 -108 96 -6 6 -46 43 -90 81 -121 108 -288 259 -294 266 -3 3 -50 46
    -106 95 -55 49 -172 154 -260 233 -87 79 -180 163 -205 185 -314 279 -389 352
    -389 379 0 68 114 240 211 319 56 45 117 78 146 78 13 0 42 -17 65 -37 36 -32
    421 -378 454 -408 78 -71 111 -100 179 -160 44 -39 84 -75 90 -81 5 -6 102
    -93 215 -195 113 -101 228 -204 255 -230 28 -25 73 -66 100 -90 28 -24 52 -46
    55 -49 46 -49 204 -180 217 -180 11 0 849 831 2003 1985 1446 1446 1991 1985
    2007 1985 12 0 39 -8 60 -17z"/>
  </g>
</svg>
