<?xml version="1.0" encoding="utf-8"?>
<!-- Generator: Adobe Illustrator 21.1.0, SVG Export Plug-In . SVG Version: 6.00 Build 0)  -->
<svg version="1.1" id="Layer_1" xmlns="http://www.w3.org/2000/svg" xmlns:xlink="http://www.w3.org/1999/xlink" x="0px" y="0px"
	 viewBox="0 0 951.9 265.7" style="enable-background:new 0 0 951.9 265.7;" xml:space="preserve">
<style type="text/css">
	.st0{fill:#FFFFFF;}
</style>
<g id="XMLID_3229_">
	<path id="XMLID_3232_" class="st0" d="M312.2,142.4v-0.3c0-25.3,20.3-45.8,47.7-45.8c27.2,0,47.4,20.2,47.4,45.4v0.3
		c0,25.3-20.3,45.8-47.7,45.8C332.4,187.8,312.2,167.6,312.2,142.4z M382.8,142.4v-0.3c0-13-9.4-24.3-23.1-24.3
		c-14.3,0-22.8,11-22.8,24v0.3c0,13,9.4,24.3,23.1,24.3C374.3,166.3,382.8,155.3,382.8,142.4z"/>
	<path id="XMLID_3230_" class="st0" d="M418.9,66.1h24.9v63.8l29.2-32h29.9l-33.5,34.6l34.6,53.3h-28.9l-22.5-36.1l-8.9,9.4v26.7
		h-24.9L418.9,66.1L418.9,66.1z"/>
</g>
<g id="XMLID_3221_">
	<path id="XMLID_3227_" class="st0" d="M668.8,97.9h24.9v12.5c5.7-7.4,13.1-14.1,25.8-14.1c18.9,0,29.9,12.5,29.9,32.6v56.9h-24.9
		v-49c0-11.8-5.6-17.9-15.1-17.9s-15.6,6.1-15.6,17.9v49h-24.9V97.9H668.8z"/>
	<path id="XMLID_3224_" class="st0" d="M760.1,142.4v-0.3c0-25.3,20.3-45.8,47.7-45.8c27.2,0,47.4,20.2,47.4,45.4v0.3
		c0,25.3-20.3,45.8-47.7,45.8C780.3,187.8,760.1,167.6,760.1,142.4z M830.7,142.4v-0.3c0-13-9.4-24.3-23.1-24.3
		c-14.3,0-22.8,11-22.8,24v0.3c0,13,9.4,24.3,23.1,24.3C822.2,166.3,830.7,155.3,830.7,142.4z"/>
	<path id="XMLID_3222_" class="st0" d="M866.8,66.1h24.9v63.8l29.2-32h29.9l-33.5,34.6l34.6,53.3H923l-22.5-36.1l-8.9,9.4v26.7
		h-24.9V66.1H866.8z"/>
</g>
<g id="XMLID_3134_">
	<g id="XMLID_3215_">
		<path id="XMLID_3218_" class="st0" d="M507.2,143.8v-0.3c0-24,18.7-44.3,44.3-44.3c25.4,0,44.1,20,44.1,44v0.3
			c0,24-18.9,44.3-44.5,44.3C525.7,187.8,507.2,167.8,507.2,143.8z M582.6,143.8v-0.3c0-18.2-13.6-33.1-31.5-33.1
			c-18.4,0-31,14.9-31,32.8v0.3c0,18.2,13.5,33,31.3,33C569.8,176.5,582.6,161.7,582.6,143.8z"/>
		<path id="XMLID_3216_" class="st0" d="M611.8,101h12.6v22.1c6.2-14.1,18.5-24.3,34.6-23.6v13.6h-1c-18.5,0-33.6,13.3-33.6,38.9
			v33.8h-12.6V101z"/>
	</g>
	<g id="XMLID_3135_">
		<path id="XMLID_3213_" class="st0" d="M340.4,203.9h15.9v2.3h-13.4v7.9h11.9v2.3h-11.9v9.6h-2.5V203.9z"/>
		<path id="XMLID_3210_" class="st0" d="M376.8,203.8h2.3l10.1,22.2h-2.7l-2.6-5.8h-12l-2.6,5.8h-2.6L376.8,203.8z M383,217.9
			l-5-11.2l-5,11.2H383z"/>
		<path id="XMLID_3208_" class="st0" d="M403.9,203.9h2.5V226h-2.5V203.9z"/>
		<path id="XMLID_3205_" class="st0" d="M422.9,203.9h9.5c2.7,0,4.9,0.8,6.3,2.2c1.1,1.1,1.7,2.6,1.7,4.4v0.1c0,3.7-2.5,5.8-6,6.4
			l6.8,9h-3.1l-6.4-8.6h-6.3v8.6h-2.5V203.9z M432.2,215.2c3.3,0,5.7-1.7,5.7-4.5v-0.1c0-2.7-2.1-4.4-5.6-4.4h-6.8v9H432.2z"/>
		<path id="XMLID_3203_" class="st0" d="M475,216.8V204h2.5v12.7c0,4.8,2.6,7.4,6.7,7.4c4.1,0,6.7-2.5,6.7-7.3V204h2.5v12.6
			c0,6.4-3.7,9.8-9.2,9.8C478.8,226.3,475,223,475,216.8z"/>
		<path id="XMLID_3201_" class="st0" d="M509.4,203.9h2.3l13.9,17.7v-17.7h2.4V226h-2l-14.2-18.1V226h-2.4V203.9z"/>
		<path id="XMLID_3198_" class="st0" d="M544.4,203.9h7.7c6.9,0,11.7,4.8,11.7,11v0.1c0,6.2-4.8,11-11.7,11h-7.7V203.9z
			 M546.9,206.2v17.5h5.2c5.6,0,9.1-3.8,9.1-8.7v-0.1c0-4.9-3.6-8.7-9.1-8.7H546.9z"/>
		<path id="XMLID_3196_" class="st0" d="M604.5,206.2h-7.4v-2.3h17.3v2.3H607V226h-2.5V206.2z"/>
		<path id="XMLID_3193_" class="st0" d="M629.2,203.9h9.5c2.7,0,4.9,0.8,6.3,2.2c1.1,1.1,1.7,2.6,1.7,4.4v0.1c0,3.7-2.5,5.8-6,6.4
			l6.8,9h-3.1l-6.4-8.6h-6.3v8.6h-2.5V203.9z M638.5,215.2c3.3,0,5.7-1.7,5.7-4.5v-0.1c0-2.7-2.1-4.4-5.6-4.4h-6.8v9H638.5z"/>
		<path id="XMLID_3190_" class="st0" d="M670.3,203.8h2.3l10.1,22.2H680l-2.6-5.8h-12l-2.6,5.8h-2.6L670.3,203.8z M676.4,217.9
			l-5-11.2l-5,11.2H676.4z"/>
		<path id="XMLID_3188_" class="st0" d="M697.1,203.9h2.3l13.9,17.7v-17.7h2.4V226h-2l-14.2-18.1V226h-2.4V203.9z"/>
		<path id="XMLID_3186_" class="st0" d="M730.6,222.8l1.5-1.8c2.3,2.1,4.5,3.1,7.6,3.1c3,0,4.9-1.6,4.9-3.8v-0.1
			c0-2.1-1.1-3.2-5.7-4.2c-5.1-1.1-7.4-2.7-7.4-6.4v-0.1c0-3.5,3.1-6,7.3-6c3.2,0,5.5,0.9,7.8,2.7l-1.4,1.9
			c-2.1-1.7-4.1-2.4-6.4-2.4c-2.9,0-4.7,1.6-4.7,3.6v0.1c0,2.1,1.1,3.2,6,4.3s7.2,2.9,7.2,6.2v0.1c0,3.8-3.2,6.2-7.5,6.2
			C736.2,226.3,733.3,225.1,730.6,222.8z"/>
		<path id="XMLID_3148_" class="st0" d="M762.4,203.9h8.3c5,0,8.3,2.6,8.3,7v0.1c0,4.8-4,7.2-8.7,7.2h-5.4v7.8h-2.5L762.4,203.9
			L762.4,203.9z M770.3,215.9c3.7,0,6.1-2,6.1-4.9v-0.1c0-3.2-2.4-4.8-5.9-4.8h-5.6v9.7L770.3,215.9L770.3,215.9z"/>
		<path id="XMLID_3145_" class="st0" d="M799.5,203.8h2.3l10.1,22.2h-2.7l-2.6-5.8h-12L792,226h-2.6L799.5,203.8z M805.6,217.9
			l-5-11.2l-5,11.2H805.6z"/>
		<path id="XMLID_3142_" class="st0" d="M826.3,203.9h9.5c2.7,0,4.9,0.8,6.3,2.2c1.1,1.1,1.7,2.6,1.7,4.4v0.1c0,3.7-2.5,5.8-6,6.4
			l6.8,9h-3.1l-6.4-8.6h-6.3v8.6h-2.5V203.9z M835.6,215.2c3.3,0,5.7-1.7,5.7-4.5v-0.1c0-2.7-2.1-4.4-5.6-4.4h-6.8v9H835.6z"/>
		<path id="XMLID_3140_" class="st0" d="M859.2,203.9h16v2.3h-13.5v7.5h12v2.3h-12v7.7h13.6v2.3h-16.1V203.9z"/>
		<path id="XMLID_3138_" class="st0" d="M890.4,203.9h2.3l13.9,17.7v-17.7h2.4V226h-2l-14.2-18.1V226h-2.4V203.9z"/>
		<path id="XMLID_3136_" class="st0" d="M931.2,206.2h-7.4v-2.3h17.3v2.3h-7.4V226h-2.5L931.2,206.2L931.2,206.2z"/>
	</g>
</g>
<g id="XMLID_3130_">
	<path id="XMLID_3132_" class="st0" d="M135.9,165c-0.3-1.2-0.6-2.4-0.9-3.6c-0.2-1.2-0.4-2.4-0.5-3.6c0-0.3-0.1-0.5-0.1-0.8
		c-0.1-1-0.1-2,0-3c-2.7,3.5-6.6,6.2-11.5,7.3c-0.4,0.1-0.9,0.2-1.4,0.3c-1.5,3.1-3.9,5.7-7,7.5c-1.4,0.8-2.7,1.4-4.1,1.8
		c-0.8,0.3-1.7,0.5-2.6,0.7c-1.4,0.3-2.8,0.5-4.3,0.7c-0.9,0.1-1.8,0.1-2.7,0.1c-4.2,0-8.3-0.9-12.2-2.5c-0.6-0.2-1.1-0.5-1.6-0.7
		c-1.2-0.6-2-0.9-3.3-1.4c-0.3-0.1-0.6-0.2-0.9-0.3c-1.6-0.5-4.4-1.2-7.4-3.4c-0.1-0.1-0.3-0.2-0.6-0.4c-1.8-1.2-3.4-2.4-4.8-3.7
		c-0.6-0.5-1.2-1-1.7-1.5c-1.3-1.2-1.3-1.2-2-1.4c-6.2-2.2-12.1-5.7-18-10.6c-1.1-0.9-2.1-1.8-3.2-2.8c-2.2-2.1-4.5-4.1-6.9-6.1
		c2.5,54.9,47.2,99,102.3,100.7c0-0.2,0-0.4-0.1-0.6c-0.4-3.1-0.5-5.9-0.3-8.6c0.8-11,6.3-18.2,11.4-22.6c2.3-2,4.7-4,7-5.8
		c1.6-1.3,3.2-2.6,4.7-3.9c-2.7-2-7-5.5-9.6-7.9c-7.4-4.2-11.4-10.8-14.4-15.7C138,170.8,136.8,168,135.9,165z"/>
	<path id="XMLID_3131_" class="st0" d="M156.3,259.1c-4.7,0-9.5-0.3-14.4-0.9c-3.8-0.5-7.6-1.1-11.5-1.9c-1.3-0.3-2.6-0.6-3.9-0.9
		c-14-3.4-27.2-9-39.2-16.4c-0.6-0.3-1.1-0.7-1.7-1s-1.1-0.7-1.6-1.1c-7.6-5.3-15.9-10.6-22.1-17.5l0,0c-0.4-0.4-0.7-0.7-1.1-1.1
		c-0.5-0.5-0.9-0.9-1.4-1.4c-28.4-28.5-44.8-68-41.2-107.4c12.6,7.1,24.3,15.7,35,25.8c5.1,4.8,10.6,8.7,17.1,11
		c3.7,1.3,4.6,2.7,7.8,5.4c0.6,0.8,3.3,2.5,4.1,3.1c1.8,1.3,3.3,1.4,5.2,2.1c2.4,0.8,3.8,1.5,5.8,2.4c2.6,1.1,5.1,1.6,7.6,1.6
		c0.6,0,1.1,0,1.7-0.1c0.9-0.1,1.9-0.2,2.8-0.4c0.6-0.1,1.1-0.3,1.7-0.5c0.6-0.2,1.2-0.5,1.7-0.8c1.5-0.9,2.4-2.2,2.9-3.7l4.3-5.5
		c0.9,0.2,1.7,0.4,2.6,0.4c0.5,0,1.1-0.1,1.6-0.2c5-1.2,7.6-5.4,6.7-10.8c-0.2-1.3-0.4-2.4,1.3-2.5c6.1-0.3,9-6.5,8.2-11.5
		c-0.1-0.6-0.5-3.8-0.5-4.3l0,0c2.5-1.3,7.5-4.6,8-7.3c0.2-1,0.3-2.1,0.2-3.4l0,0c-0.1-0.9-0.2-1.8-0.3-2.8
		c-0.5-2.9-1.5-5.8-3.1-8.4c-2.9-4.7-5.8-9.5-11.2-12.1c-2.2-2.1-8.7-7.5-10.8-8.9c-3.1-2.1-2.2-4.2-5.3-6.3c-0.4-0.3-1-0.9-1-1.2
		c0.5-1.9,0.7-4.3,1.9-5.5c5.3-4.8,11-9.1,16.4-13.8c6.2-5.4,8.2-12.4,7.3-20.4c-0.2-1.7-0.5-3.5-1-5.3c-0.6-2.2-1.8-4.1-3.8-5.3
		c-0.1,0-0.1-0.1-0.2-0.1c-0.9-0.5-1.6-0.8-2.3-0.8c-0.6,0-1.1,0.2-1.5,0.5c-0.5,0.4-0.8,1-1.1,1.8c-0.6,1.9-1.1,3.8-1.5,5.7
		c-0.1,0.3-0.2,0.6-0.3,0.8c-1.4,4.1-5,6.2-7.9,9.1c-0.5,0.5-1.6,1.2-2.3,1.5c-0.7,0.4-1.3,0.6-1.8,1.2c-0.4,0.4-0.7,0.5-1.2,0.7
		c-5.1,1.8-10.1,3.6-15.2,5.3c-3.8,1.3-8.2,1.8-11.5,3.8c-9.4,5.4-18.4,11.2-27.5,17c-1.2,0.8-2.5,1.1-3.7,1.1
		c-1.5,0-3.1-0.5-4.7-1.5c-4.6-2.6-9.1-5.4-13.8-7.9c-1.8-0.9-3.6-1.9-5.4-2.7c-1.8-0.8-3.5-1.7-5.2-2.6
		C14.4,66.4,6.1,82.8,2.3,101.7c-0.7,3.3-1.2,6.7-1.6,10.2c-4.6,43.9,15.1,87.9,48.6,117.5l0,0c0.1,0.1,0.2,0.2,0.3,0.3
		c0.9,0.8,1.8,1.7,2.9,2.6c6.3,5.2,16.2,11.3,23.3,15.6c1.4,0.9,2.8,1.7,3.9,2.4c0,0,0.1,0,0.1,0.1c9.7,5,20,8.9,30.8,11.6
		c8,1.9,15.9,3.1,23.6,3.5c1.8,0.1,3.5,0.2,5.3,0.2c0.4,0,0.9,0,1.3,0c19.2,0,37.2-4.6,52.7-13C182.1,256.8,169.5,259.1,156.3,259.1
		z"/>
</g>
<path id="XMLID_3125_" class="st0" d="M257.6,210.1c11.2-13.3,19-29.8,22.4-48.6c0.5-2.6,0.9-5.3,1.2-8
	c4.3-40.1-12.1-80.5-40.8-109.8c-0.4-0.5-0.9-0.9-1.3-1.4c-0.9-1-1.8-1.9-2.7-2.8c-6.5-6.6-13.9-12.4-21.8-17.3
	c-1-0.6-2.1-1.2-3.1-1.8c-1.4-0.8-2.9-1.6-4.4-2.4c-11.2-6.3-23.2-11.2-35.9-14.3c-5.5-1.3-10.9-2.3-16.3-2.9
	c-1.3-0.1-2.6-0.3-3.9-0.4c-3.4-0.3-6.7-0.4-10-0.4c-19.2,0-37.2,4.6-52.7,13c11.6-4.2,24.2-6.4,37.4-6.4c2.2,0,4.4,0.1,6.6,0.2
	c5.2,0.3,10.5,0.9,15.8,1.9c2.4,0.4,4.9,1,7.4,1.6c1.4,0.4,2.9,0.8,4.3,1.2c15.4,4.3,29.8,11.3,42.7,20.3c0.5,0.4,1.1,0.8,1.6,1.1
	c0,0,0.1,0,0.1,0.1c0.5,0.4,1,0.7,1.5,1.1l0,0c7.6,5.3,14.6,11.5,20.8,18.5l-0.1,0.1c0.5,0.5,0.9,1,1.3,1.5c0.4,0.4,0.8,0.9,1.2,1.3
	c0.3,0.3,0.6,0.7,0.9,1c16.4,20.2,26.2,45.8,26.2,73.8c0,5.4-0.4,10.8-1.1,16c-6.3-4.5-12.3-9.4-18-14.8c-5.1-4.8-10.6-8.7-17.1-11
	c-3.7-1.3-4.6-2.7-7.8-5.4c-0.6-0.8-3.3-2.5-4.1-3.1c-1.8-1.3-3.3-1.4-5.2-2.1c-2.4-0.8-3.8-1.5-5.8-2.4c-2.2-1-4.4-1.4-6.5-1.6
	c-0.4,0-0.8,0-1.2,0s-0.9,0-1.3,0c-0.9,0.1-1.9,0.2-2.8,0.4c-0.7,0.1-1.4,0.3-2,0.5c-3.8,1.2-6.7,5.9-5.9,9.7l0,0
	c-1.6-0.6-4-0.2-5.6-0.2c-0.5,0-1.1,0.1-1.6,0.2c-5,1.2-7.6,5.4-6.7,10.8c0.2,1.3,0.4,2.4-1.3,2.5c-6.1,0.3-9,6.5-8.2,11.5
	c0.2,1.1,0.4,2.3,0.2,3.3c-0.1,0.7-0.7,1.5-1.3,1.7c-4.8,1.6-6.9,4.7-6.5,10c0,0.1,0,0.2,0,0.4c0.1,0.9,0.2,1.8,0.4,2.7
	c0.2,0.8,0.4,1.6,0.6,2.4c0.6,2,1.4,3.9,2.5,5.7c2.9,4.7,5.8,9.5,11.2,12.1c2.2,2.1,8.7,7.5,10.8,8.9c3.1,2.1,2.2,4.2,5.3,6.3
	c0.4,0.3,1,0.9,1,1.2c-0.5,1.9-0.7,4.3-1.9,5.5c-5.3,4.8-11,9.1-16.4,13.8c-6.4,5.6-8.4,12.9-7.2,21.3c0.1,0.9,0.1,1.8,0.2,2.6
	c0.4,3.5,1,5.7,1.9,7c0.6,0.9,1.3,1.3,2,1.3c1.1,0,2.3-0.9,3.4-2.2c1.6-1.9,3.1-4.6,3.9-6.6c0-0.1,0.1-0.1,0.1-0.2
	c1.3-4.2,5-6.3,7.9-9.1c0.5-0.5,1.6-1.2,2.3-1.5c0.7-0.4,1.3-0.6,1.8-1.2c0.4-0.4,0.7-0.5,1.2-0.7c5.1-1.8,10.1-3.6,15.2-5.3
	c3.8-1.3,8.2-1.8,11.5-3.8c9.4-5.4,18.4-11.2,27.5-17c0.8-0.5,1.6-0.8,2.3-1c0.5-0.1,0.9-0.2,1.4-0.2c1.5,0,3.1,0.5,4.7,1.5
	c0.2,0.1,0.4,0.3,0.7,0.4c2.2,1.3,4.5,2.6,6.7,3.9C250.5,206.4,254,208.4,257.6,210.1z"/>
<path id="XMLID_3056_" class="st0" d="M155,105.7c0.2,1.1,0.3,2.3,0.4,3.4v0.1v0.5c0.1,1,0.1,2,0,3c2.7-3.5,6.6-6.2,11.5-7.4
	c0.4-0.1,0.9-0.2,1.3-0.3c2.1-4.4,6-7.7,11.2-9.3c0.9-0.3,1.9-0.5,3.1-0.8c1.4-0.3,2.9-0.5,4.3-0.6c0.7-0.1,1.4-0.1,2.1-0.1
	c0.6,0,1.2,0,1.8,0.1c3.6,0.2,7.1,1,10.4,2.5c0.6,0.2,1.1,0.5,1.6,0.7c1.2,0.6,2,0.9,3.3,1.4c0.3,0.1,0.6,0.2,0.9,0.3
	c1.6,0.5,4.4,1.2,7.4,3.4c0.1,0.1,0.3,0.2,0.6,0.4c1.8,1.2,3.4,2.4,4.8,3.7c0.6,0.5,1.2,1,1.7,1.5c1.3,1.2,1.3,1.2,2,1.4
	c5.6,2,10.9,5,16.1,9.1c1.7,1.3,3.4,2.8,5,4.3s3.4,3,5.1,4.5c0.7,0.6,1.3,1.2,2,1.8c-0.9-6.2-2.3-12.3-4.2-18.3
	c-5.3-17.1-14.5-33.6-27.1-47.9c-0.2-0.3-0.5-0.5-0.7-0.8l-0.5-0.6l-0.4-0.4c-0.3-0.3-0.6-0.6-0.8-0.9l-6.6-7.1
	c-1.2-1.1-2.2-2.1-3.5-3.3l-9-6.7l-0.5-0.4c-0.3-0.2-0.6-0.5-0.9-0.7l-0.1-0.1c-0.4-0.3-0.9-0.6-1.3-0.9c-0.8-0.5-1.6-1-2.3-1.6
	c-13.4-7.1-28.6-11.5-44.6-12.2c0.1,0.8,0.3,1.6,0.4,2.4c0.3,2.3,0.3,4.6,0.2,6.8c-0.4,9.4-4.3,17.5-11.4,23.7c-2.3,2-4.7,4-7,5.8
	c-1.6,1.3-3.2,2.6-4.7,3.9c2.7,2,7,5.5,9.6,7.9c7.4,4.2,11.4,10.8,14.4,15.7C152.7,97.1,154.2,101.3,155,105.7z"/>
</svg>
