<?xml version="1.0" encoding="utf-8"?>
<!-- Generator: Adobe Illustrator 21.1.0, SVG Export Plug-In . SVG Version: 6.00 Build 0)  -->
<svg version="1.1" id="Layer_1" xmlns="http://www.w3.org/2000/svg" xmlns:xlink="http://www.w3.org/1999/xlink" x="0px" y="0px"
	 viewBox="0 0 24 24" style="enable-background:new 0 0 24 24;" xml:space="preserve">
<style type="text/css">
	.st0{opacity:0.38;}
</style>
<g>
	<path class="st0" d="M8.3,18.1c0-0.1-0.1-0.1-0.2-0.2c-0.1,0-0.2-0.1-0.3-0.1c-0.1,0-0.1,0-0.2,0S7.6,18,7.6,18
		c0,0-0.1,0.1-0.1,0.1s-0.1,0.1-0.1,0.1v1c0,0,0.1,0.1,0.1,0.1c0,0,0.1,0.1,0.1,0.1s0.1,0,0.1,0.1s0.1,0,0.2,0c0.1,0,0.2,0,0.3-0.1
		c0.1,0,0.1-0.1,0.2-0.2s0.1-0.2,0.1-0.3c0-0.1,0-0.2,0-0.3v0c0-0.1,0-0.2,0-0.3C8.4,18.3,8.4,18.2,8.3,18.1z"/>
	<path class="st0" d="M14.5,2h-8c-1.1,0-2,0.9-2,2l0,16c0,1.1,0.9,2,2,2h12c1.1,0,2-0.9,2-2V8L14.5,2z M6.3,19.8
		c0,0-0.1,0.1-0.2,0.1S6,19.8,6,19.8c0,0-0.1-0.1-0.1-0.2c0-0.1,0-0.1,0.1-0.2c0,0,0.1-0.1,0.2-0.1s0.1,0,0.2,0.1s0.1,0.1,0.1,0.2
		C6.4,19.7,6.4,19.7,6.3,19.8z M8.9,18.7c0,0.2,0,0.3-0.1,0.4c0,0.1-0.1,0.3-0.2,0.4s-0.2,0.2-0.3,0.2c-0.1,0.1-0.2,0.1-0.4,0.1
		c-0.1,0-0.3,0-0.4-0.1s-0.2-0.1-0.3-0.2v1.1H7v-3h0.3l0,0.2c0.1-0.1,0.2-0.2,0.3-0.2c0.1,0,0.2-0.1,0.4-0.1c0.1,0,0.3,0,0.4,0.1
		c0.1,0.1,0.2,0.1,0.3,0.2c0.1,0.1,0.1,0.2,0.2,0.4C8.8,18.4,8.9,18.5,8.9,18.7L8.9,18.7z M11.1,19.8h-0.3l0-0.2
		c-0.1,0.1-0.2,0.2-0.3,0.2c-0.1,0-0.2,0.1-0.4,0.1c-0.1,0-0.2,0-0.4-0.1c-0.1-0.1-0.2-0.1-0.3-0.2c-0.1-0.1-0.1-0.2-0.2-0.4
		c0-0.1-0.1-0.3-0.1-0.4v0c0-0.2,0-0.3,0.1-0.5c0-0.1,0.1-0.3,0.2-0.4c0.1-0.1,0.2-0.2,0.3-0.2c0.1-0.1,0.2-0.1,0.4-0.1
		c0.1,0,0.3,0,0.4,0.1c0.1,0,0.2,0.1,0.3,0.2v-1.1h0.4V19.8z M12.8,17C12.8,17,12.8,17,12.8,17c-0.1,0-0.2,0-0.2,0
		c-0.1,0-0.2,0-0.3,0.1s-0.1,0.2-0.1,0.3v0.2h0.5v0.3h-0.5v1.9h-0.4v-1.9h-0.3v-0.3h0.3v-0.2c0-0.1,0-0.2,0-0.3
		c0-0.1,0.1-0.2,0.1-0.2s0.1-0.1,0.2-0.1c0.1,0,0.2,0,0.3,0c0.1,0,0.2,0,0.3,0L12.8,17z M13.5,9V3.5L19,9H13.5z"/>
	<path class="st0" d="M10.5,18c0,0-0.1,0-0.1-0.1s-0.1,0-0.2,0c-0.1,0-0.2,0-0.3,0.1c-0.1,0-0.1,0.1-0.2,0.2c0,0.1-0.1,0.2-0.1,0.3
		c0,0.1,0,0.2,0,0.3v0c0,0.1,0,0.2,0,0.3c0,0.1,0.1,0.2,0.1,0.3c0,0.1,0.1,0.1,0.2,0.2s0.2,0.1,0.3,0.1c0.1,0,0.1,0,0.2,0
		s0.1,0,0.1-0.1c0,0,0.1-0.1,0.1-0.1c0,0,0.1-0.1,0.1-0.1v-1c0,0-0.1-0.1-0.1-0.1C10.6,18,10.6,18,10.5,18z"/>
</g>
</svg>
