<?xml version="1.0" encoding="utf-8"?>
<!-- Generator: Adobe Illustrator 21.0.2, SVG Export Plug-In . SVG Version: 6.00 Build 0)  -->
<svg version="1.1" id="Слой_1" xmlns="http://www.w3.org/2000/svg" xmlns:xlink="http://www.w3.org/1999/xlink" x="0px" y="0px"
	 viewBox="0 0 178.9 50" style="enable-background:new 0 0 178.9 50;" xml:space="preserve">
<style type="text/css">
	.st0{fill:#FF6633;}
	.st1{fill:#2F3438;}
	.st2{fill:#959FAB;}
</style>
<g>
	<path class="st0" d="M67.6,18.1c-5.1,0-9,3.9-9,8.6v0.1c0,4.7,3.8,8.5,8.9,8.5c5.1,0,9-3.9,9-8.6v-0.1
		C76.6,21.9,72.8,18.1,67.6,18.1z M71.9,26.8c0,2.4-1.6,4.5-4.3,4.5c-2.6,0-4.3-2.1-4.3-4.6v-0.1c0-2.4,1.6-4.5,4.3-4.5
		C70.2,22.2,71.9,24.3,71.9,26.8L71.9,26.8z"/>
	<polygon class="st0" points="94.5,18.4 88.9,18.4 83.4,24.4 83.4,12.4 78.7,12.4 78.7,35 83.4,35 83.4,29.9 85.1,28.2 89.3,35 
		94.7,35 88.2,24.9 	"/>
	<path class="st1" d="M135.2,18.1c-2.4,0-3.8,1.3-4.8,2.7v-2.3h-4.7V35h4.7v-9.2c0-2.2,1.1-3.4,2.9-3.4s2.8,1.1,2.8,3.4V35h4.7V24.3
		C140.8,20.5,138.8,18.1,135.2,18.1z"/>
	<path class="st1" d="M151.8,18.1c-5.1,0-9,3.9-9,8.6v0.1c0,4.7,3.8,8.5,8.9,8.5c5.1,0,9-3.9,9-8.6v-0.1
		C160.7,21.9,157,18.1,151.8,18.1z M156.1,26.8c0,2.4-1.6,4.5-4.3,4.5c-2.6,0-4.3-2.1-4.3-4.6v-0.1c0-2.4,1.6-4.5,4.3-4.5
		C154.4,22.2,156.1,24.3,156.1,26.8L156.1,26.8z"/>
	<polygon class="st1" points="172.4,24.9 178.7,18.4 173.1,18.4 167.6,24.4 167.6,12.4 162.9,12.4 162.9,35 167.6,35 167.6,29.9 
		169.3,28.2 173.5,35 178.9,35 	"/>
	<path class="st2" d="M103.6,18.7c-4.8,0-8.3,3.8-8.3,8.3v0.1c0,4.5,3.5,8.3,8.3,8.3c4.8,0,8.4-3.8,8.4-8.3v-0.1
		C111.9,22.4,108.4,18.7,103.6,18.7z M109.5,27.1c0,3.4-2.4,6.1-5.9,6.1c-3.4,0-5.9-2.8-5.9-6.2v-0.1c0-3.4,2.4-6.2,5.8-6.2
		C106.9,20.8,109.5,23.6,109.5,27.1L109.5,27.1z"/>
	<path class="st2" d="M117.4,23.2V19H115V35h2.4v-6.4c0-4.8,2.8-7.3,6.3-7.3h0.2v-2.6C120.8,18.6,118.5,20.5,117.4,23.2z"/>
	<polygon class="st2" points="64,42.5 64.4,42.5 64.4,40.7 66.7,40.7 66.7,40.3 64.4,40.3 64.4,38.8 67,38.8 67,38.3 64,38.3 	"/>
	<path class="st2" d="M70.8,38.3l-1.9,4.2h0.5l0.5-1.1h2.3l0.5,1.1h0.5l-1.9-4.2H70.8z M70.1,41l0.9-2.1L72,41H70.1z"/>
	<rect x="75.9" y="38.3" class="st2" width="0.5" height="4.1"/>
	<path class="st2" d="M82.8,39.6L82.8,39.6c0-0.3-0.1-0.6-0.3-0.8c-0.3-0.3-0.7-0.4-1.2-0.4h-1.8v4.1h0.5v-1.6h1.2l1.2,1.6h0.6
		l-1.3-1.7C82.3,40.7,82.8,40.3,82.8,39.6z M79.9,40.5v-1.7h1.3c0.7,0,1.1,0.3,1.1,0.8v0c0,0.5-0.4,0.9-1.1,0.9H79.9z"/>
	<path class="st2" d="M92.3,40.8c0,0.9-0.5,1.4-1.3,1.4c-0.8,0-1.3-0.5-1.3-1.4v-2.4h-0.5v2.4c0,1.2,0.7,1.8,1.7,1.8
		c1,0,1.7-0.6,1.7-1.8v-2.4h-0.5V40.8z"/>
	<polygon class="st2" points="98.8,41.7 96.2,38.3 95.7,38.3 95.7,42.5 96.2,42.5 96.2,39.1 98.9,42.5 99.2,42.5 99.2,38.3 
		98.8,38.3 	"/>
	<path class="st2" d="M103.7,38.3h-1.4v4.1h1.4c1.3,0,2.2-0.9,2.2-2.1v0C106,39.2,105.1,38.3,103.7,38.3z M105.5,40.4
		c0,0.9-0.7,1.6-1.7,1.6h-1v-3.3h1C104.8,38.8,105.5,39.5,105.5,40.4L105.5,40.4z"/>
	<polygon class="st2" points="112.2,38.8 113.6,38.8 113.6,42.5 114.1,42.5 114.1,38.8 115.5,38.8 115.5,38.3 112.2,38.3 	"/>
	<path class="st2" d="M121.5,39.6L121.5,39.6c0-0.3-0.1-0.6-0.3-0.8c-0.3-0.3-0.7-0.4-1.2-0.4h-1.8v4.1h0.5v-1.6h1.2l1.2,1.6h0.6
		l-1.3-1.7C121.1,40.7,121.5,40.3,121.5,39.6z M118.7,40.5v-1.7h1.3c0.7,0,1.1,0.3,1.1,0.8v0c0,0.5-0.4,0.9-1.1,0.9H118.7z"/>
	<path class="st2" d="M126,38.3l-1.9,4.2h0.5l0.5-1.1h2.3l0.5,1.1h0.5l-1.9-4.2H126z M125.2,41l0.9-2.1l0.9,2.1H125.2z"/>
	<polygon class="st2" points="134.1,41.7 131.4,38.3 131,38.3 131,42.5 131.5,42.5 131.5,39.1 134.1,42.5 134.5,42.5 134.5,38.3 
		134.1,38.3 	"/>
	<path class="st2" d="M139.1,40.2c-0.9-0.2-1.1-0.4-1.1-0.8v0c0-0.4,0.3-0.7,0.9-0.7c0.4,0,0.8,0.1,1.2,0.5l0.3-0.4
		c-0.4-0.3-0.9-0.5-1.5-0.5c-0.8,0-1.4,0.5-1.4,1.1v0c0,0.7,0.4,1,1.4,1.2c0.9,0.2,1.1,0.4,1.1,0.8v0c0,0.4-0.4,0.7-0.9,0.7
		c-0.6,0-1-0.2-1.4-0.6l-0.3,0.3c0.5,0.4,1,0.7,1.7,0.7c0.8,0,1.4-0.5,1.4-1.2v0C140.4,40.7,140,40.4,139.1,40.2z"/>
	<path class="st2" d="M144.8,38.3h-1.6v4.1h0.5V41h1c0.9,0,1.6-0.5,1.6-1.4v0C146.4,38.8,145.8,38.3,144.8,38.3z M145.9,39.7
		c0,0.5-0.5,0.9-1.1,0.9h-1v-1.8h1C145.5,38.8,145.9,39.1,145.9,39.7L145.9,39.7z"/>
	<path class="st2" d="M150.2,38.3l-1.9,4.2h0.5l0.5-1.1h2.3l0.5,1.1h0.5l-1.9-4.2H150.2z M149.5,41l0.9-2.1l0.9,2.1H149.5z"/>
	<path class="st2" d="M158.6,39.6L158.6,39.6c0-0.3-0.1-0.6-0.3-0.8c-0.3-0.3-0.7-0.4-1.2-0.4h-1.8v4.1h0.5v-1.6h1.2l1.2,1.6h0.6
		l-1.3-1.7C158.1,40.7,158.6,40.3,158.6,39.6z M155.8,40.5v-1.7h1.3c0.7,0,1.1,0.3,1.1,0.8v0c0,0.5-0.4,0.9-1.1,0.9H155.8z"/>
	<polygon class="st2" points="161.9,40.6 164.2,40.6 164.2,40.2 161.9,40.2 161.9,38.8 164.5,38.8 164.5,38.3 161.5,38.3 
		161.5,42.5 164.5,42.5 164.5,42.1 161.9,42.1 	"/>
	<polygon class="st2" points="170.4,41.7 167.8,38.3 167.3,38.3 167.3,42.5 167.8,42.5 167.8,39.1 170.5,42.5 170.8,42.5 
		170.8,38.3 170.4,38.3 	"/>
	<polygon class="st2" points="173.6,38.8 175,38.8 175,42.5 175.5,42.5 175.5,38.8 176.9,38.8 176.9,38.3 173.6,38.3 	"/>
	<path class="st0" d="M28.5,38.9c0.4-0.4,0.9-0.7,1.3-1.1c0.3-0.2,0.6-0.5,0.9-0.7c-0.5-0.4-1.3-1-1.8-1.5c-1.4-0.8-2.1-2-2.7-2.9
		c-0.3-0.5-0.5-1-0.7-1.6c-0.1-0.2-0.1-0.4-0.2-0.7c0-0.2-0.1-0.4-0.1-0.7c0,0,0-0.1,0-0.2c0-0.2,0-0.4,0-0.6
		c-0.5,0.7-1.2,1.2-2.2,1.4c-0.1,0-0.2,0-0.3,0.1c-0.3,0.6-0.7,1.1-1.3,1.4c-0.3,0.1-0.5,0.3-0.8,0.3c-0.2,0-0.3,0.1-0.5,0.1
		c-0.3,0.1-0.5,0.1-0.8,0.1c-0.2,0-0.3,0-0.5,0c-0.8,0-1.6-0.2-2.3-0.5c-0.1,0-0.2-0.1-0.3-0.1c-0.2-0.1-0.4-0.2-0.6-0.3
		c-0.1,0-0.1,0-0.2,0c-0.3-0.1-0.8-0.2-1.4-0.6c0,0-0.1,0-0.1-0.1c-0.3-0.2-0.6-0.4-0.9-0.7c-0.1-0.1-0.2-0.2-0.3-0.3
		c-0.3-0.2-0.3-0.2-0.4-0.3c-1.2-0.4-2.3-1.1-3.4-2c-0.2-0.2-0.4-0.3-0.6-0.5c-0.4-0.4-0.9-0.8-1.3-1.1c0.5,10.3,8.9,18.6,19.2,18.9
		c0,0,0-0.1,0-0.1c-0.1-0.6-0.1-1.1-0.1-1.6C26.6,41,27.6,39.7,28.5,38.9z"/>
	<path class="st0" d="M26.7,48.6c-0.7-0.1-1.4-0.2-2.2-0.4c-0.2-0.1-0.5-0.1-0.7-0.2c-2.6-0.6-5.1-1.7-7.4-3.1
		c-0.1-0.1-0.2-0.1-0.3-0.2c-0.1-0.1-0.2-0.1-0.3-0.2c-1.4-1-3-2-4.1-3.3l0,0c-0.1-0.1-0.1-0.1-0.2-0.2c-0.1-0.1-0.2-0.2-0.3-0.3
		C5.8,35.5,2.7,28,3.4,20.6c2.4,1.3,4.6,3,6.6,4.8c1,0.9,2,1.6,3.2,2.1c0.7,0.2,0.9,0.5,1.5,1c0.1,0.2,0.6,0.5,0.8,0.6
		c0.3,0.2,0.6,0.3,1,0.4c0.5,0.2,0.7,0.3,1.1,0.5c0.5,0.2,1,0.3,1.4,0.3c0.1,0,0.2,0,0.3,0c0.2,0,0.4,0,0.5-0.1
		c0.1,0,0.2-0.1,0.3-0.1c0.1,0,0.2-0.1,0.3-0.1c0.3-0.2,0.5-0.4,0.5-0.7l0.8-1c0.2,0,0.3,0.1,0.5,0.1c0.1,0,0.2,0,0.3,0
		c0.9-0.2,1.4-1,1.3-2c0-0.2-0.1-0.5,0.2-0.5c1.1-0.1,1.7-1.2,1.5-2.2c0-0.1-0.1-0.7-0.1-0.8c0.5-0.2,1.4-0.9,1.5-1.4
		c0-0.2,0-0.4,0-0.6c0,0,0,0,0,0c0-0.2,0-0.3-0.1-0.5c-0.1-0.5-0.3-1.1-0.6-1.6c-0.5-0.9-1.1-1.8-2.1-2.3c-0.4-0.4-1.6-1.4-2-1.7
		c-0.6-0.4-0.4-0.8-1-1.2c-0.1-0.1-0.2-0.2-0.2-0.2c0.1-0.4,0.1-0.8,0.4-1c1-0.9,2.1-1.7,3.1-2.6c1.2-1,1.5-2.3,1.4-3.8
		c0-0.3-0.1-0.7-0.2-1c-0.1-0.4-0.3-0.8-0.7-1c0,0,0,0,0,0c-0.2-0.1-0.3-0.1-0.4-0.1c-0.1,0-0.2,0-0.3,0.1C24.2,3.9,24.1,4,24,4.1
		c-0.1,0.4-0.2,0.7-0.3,1.1c0,0.1,0,0.1-0.1,0.2c-0.3,0.8-0.9,1.2-1.5,1.7c-0.1,0.1-0.3,0.2-0.4,0.3c-0.1,0.1-0.2,0.1-0.3,0.2
		c-0.1,0.1-0.1,0.1-0.2,0.1c-0.9,0.3-1.9,0.7-2.9,1c-0.7,0.2-1.5,0.3-2.2,0.7c-1.8,1-3.5,2.1-5.2,3.2c-0.2,0.1-0.5,0.2-0.7,0.2
		c-0.3,0-0.6-0.1-0.9-0.3c-0.9-0.5-1.7-1-2.6-1.5c-0.3-0.2-0.7-0.3-1-0.5c-0.3-0.2-0.7-0.3-1-0.5c-2.2,2.5-3.7,5.6-4.5,9.1
		c-0.1,0.6-0.2,1.3-0.3,1.9c-0.9,8.2,2.8,16.5,9.1,22l0,0c0,0,0,0,0.1,0.1c0.2,0.2,0.3,0.3,0.6,0.5c1.2,1,3,2.1,4.4,2.9
		c0.3,0.2,0.5,0.3,0.7,0.5c0,0,0,0,0,0c1.8,0.9,3.8,1.7,5.8,2.2c1.5,0.4,3,0.6,4.4,0.7c0.3,0,0.7,0,1,0c0.1,0,0.2,0,0.2,0
		c3.6,0,7-0.9,9.9-2.4c-2.2,0.8-4.6,1.2-7,1.2C28.5,48.7,27.6,48.7,26.7,48.6z"/>
	<path class="st1" d="M44.9,7.9c-0.2-0.2-0.3-0.4-0.5-0.5c-1.2-1.2-2.6-2.3-4.1-3.2c-0.2-0.1-0.4-0.2-0.6-0.3
		c-0.3-0.2-0.5-0.3-0.8-0.4c-2.1-1.2-4.4-2.1-6.7-2.7c-1-0.3-2.1-0.4-3.1-0.5c-0.2,0-0.5,0-0.7-0.1C27.7,0,27.1,0,26.5,0
		c-3.6,0-7,0.9-9.9,2.4c2.2-0.8,4.6-1.2,7-1.2c0.4,0,0.8,0,1.2,0c1,0.1,2,0.2,3,0.4c0.5,0.1,0.9,0.2,1.4,0.3C29.5,2,29.7,2.1,30,2.1
		C32.9,3,35.6,4.3,38,6c0.1,0.1,0.2,0.1,0.3,0.2c0,0,0,0,0,0c0.1,0.1,0.2,0.1,0.3,0.2l0,0c1.4,1,2.7,2.2,3.9,3.5l0,0
		c0.1,0.1,0.2,0.2,0.3,0.3c0.1,0.1,0.1,0.2,0.2,0.2c0.1,0.1,0.1,0.1,0.2,0.2c3.1,3.8,4.9,8.6,4.9,13.9c0,1-0.1,2-0.2,3
		c-1.2-0.9-2.3-1.8-3.4-2.8c-1-0.9-2-1.6-3.2-2.1c-0.7-0.2-0.9-0.5-1.5-1c-0.1-0.2-0.6-0.5-0.8-0.6c-0.3-0.2-0.6-0.3-1-0.4
		c-0.5-0.2-0.7-0.3-1.1-0.5c-0.4-0.2-0.8-0.3-1.2-0.3c-0.1,0-0.1,0-0.2,0c-0.1,0-0.2,0-0.2,0c-0.2,0-0.3,0-0.5,0.1
		c-0.1,0-0.3,0.1-0.4,0.1c-0.7,0.2-1.3,1.1-1.1,1.8c-0.3-0.1-0.7,0-1,0c-0.1,0-0.2,0-0.3,0c-0.9,0.2-1.4,1-1.3,2
		c0,0.2,0.1,0.5-0.2,0.5c-1.1,0.1-1.7,1.2-1.5,2.2c0,0.2,0.1,0.4,0,0.6c0,0.1-0.1,0.3-0.2,0.3c-0.9,0.3-1.3,0.9-1.2,1.9
		c0,0,0,0,0,0.1c0,0.2,0,0.3,0.1,0.5c0,0.2,0.1,0.3,0.1,0.5c0.1,0.4,0.3,0.7,0.5,1.1c0.5,0.9,1.1,1.8,2.1,2.3c0.4,0.4,1.6,1.4,2,1.7
		c0.6,0.4,0.4,0.8,1,1.2c0.1,0.1,0.2,0.2,0.2,0.2c-0.1,0.4-0.1,0.8-0.4,1c-1,0.9-2.1,1.7-3.1,2.6c-1.2,1-1.6,2.4-1.3,4
		c0,0.2,0,0.3,0,0.5c0.1,0.7,0.2,1.1,0.3,1.3c0.1,0.2,0.2,0.3,0.4,0.3c0.2,0,0.4-0.2,0.6-0.4c0.3-0.4,0.6-0.9,0.7-1.2c0,0,0,0,0,0
		c0.3-0.8,0.9-1.2,1.5-1.7c0.1-0.1,0.3-0.2,0.4-0.3c0.1-0.1,0.2-0.1,0.3-0.2c0.1-0.1,0.1-0.1,0.2-0.1c0.9-0.3,1.9-0.7,2.9-1
		c0.7-0.2,1.5-0.3,2.2-0.7c1.8-1,3.5-2.1,5.2-3.2c0.1-0.1,0.3-0.2,0.4-0.2c0.1,0,0.2,0,0.3,0c0.3,0,0.6,0.1,0.9,0.3
		c0,0,0.1,0,0.1,0.1c0.4,0.2,0.8,0.5,1.3,0.7c0.7,0.4,1.3,0.7,2,1.1c2.1-2.5,3.6-5.6,4.2-9.1c0.1-0.5,0.2-1,0.2-1.5
		c0.8-7.5-2.3-15.1-7.7-20.6C45.1,8.1,45,8,44.9,7.9z"/>
	<path class="st1" d="M25.9,11.3c-0.4,0.4-0.9,0.7-1.3,1.1c-0.3,0.2-0.6,0.5-0.9,0.7c0.5,0.4,1.3,1,1.8,1.5c1.4,0.8,2.1,2,2.7,2.9
		c0.4,0.7,0.7,1.5,0.9,2.3c0,0.2,0.1,0.4,0.1,0.6l0,0l0,0.1c0,0.2,0,0.4,0,0.6c0.5-0.7,1.2-1.2,2.2-1.4c0.1,0,0.2,0,0.2-0.1
		c0.4-0.8,1.1-1.5,2.1-1.8c0.2-0.1,0.4-0.1,0.6-0.1c0.3-0.1,0.5-0.1,0.8-0.1c0.1,0,0.3,0,0.4,0c0.1,0,0.2,0,0.3,0
		c0.7,0,1.3,0.2,2,0.5c0.1,0,0.2,0.1,0.3,0.1c0.2,0.1,0.4,0.2,0.6,0.3c0.1,0,0.1,0,0.2,0c0.3,0.1,0.8,0.2,1.4,0.6c0,0,0.1,0,0.1,0.1
		c0.3,0.2,0.6,0.4,0.9,0.7c0.1,0.1,0.2,0.2,0.3,0.3c0.3,0.2,0.3,0.2,0.4,0.3c1,0.4,2,0.9,3,1.7c0.3,0.3,0.6,0.5,0.9,0.8
		c0.3,0.3,0.6,0.6,0.9,0.8c0.1,0.1,0.2,0.2,0.4,0.3c-0.2-1.2-0.4-2.3-0.8-3.4c-1-3.2-2.7-6.3-5.1-9c0,0-0.1-0.1-0.1-0.1l-0.1-0.1
		l-0.1-0.1c-0.1-0.1-0.1-0.1-0.2-0.2L39.7,10c-0.2-0.2-0.4-0.4-0.7-0.6l-1.7-1.3l-0.1-0.1c-0.1,0-0.1-0.1-0.2-0.1l0,0
		c-0.1-0.1-0.2-0.1-0.2-0.2c-0.1-0.1-0.3-0.2-0.4-0.3C33.8,6.1,31,5.3,28,5.1C28,5.3,28,5.4,28,5.6c0.1,0.4,0.1,0.9,0,1.3
		C28,8.6,27.3,10.2,25.9,11.3z"/>
</g>
</svg>
